<svg xmlns="http://www.w3.org/2000/svg" width="1066.667" height="1066.667" preserveAspectRatio="xMidYMid meet" version="1.0" viewBox="0 0 800 800"><metadata>Created by potrace 1.14, written by Peter Selinger 2001-2017</metadata><g fill="#000" stroke="none"><path d="M3117 7895 c-20 -14 -37 -22 -37 -18 0 4 -4 3 -8 -3 -8 -12 -150 -94 -163 -94 -5 0 -9 -4 -9 -10 0 -5 -4 -10 -9 -10 -5 0 -64 -32 -132 -72 -68 -39 -142 -81 -164 -93 -22 -12 -80 -46 -130 -74 -49 -29 -193 -112 -320 -184 -126 -72 -233 -136 -237 -141 -4 -6 -8 -7 -8 -3 0 5 -12 0 -27 -11 -16 -11 -59 -36 -98 -57 -38 -21 -76 -42 -83 -48 -19 -15 -114 -67 -134 -74 -10 -3 -18 -9 -18 -14 0 -5 -4 -9 -9 -9 -5 0 -47 -22 -94 -50 -47 -27 -90 -50 -96 -50 -6 0 -11 -4 -11 -8 0 -5 -19 -17 -41 -28 -23 -10 -47 -23 -53 -29 -12 -10 -83 -50 -123 -69 -13 -6 -23 -14 -23 -18 0 -5 -6 -8 -14 -8 -8 0 -21 -6 -28 -12 -7 -7 -29 -21 -48 -30 -19 -10 -54 -29 -77 -43 -24 -13 -105 -60 -180 -104 -76 -43 -154 -88 -173 -99 -19 -11 -57 -33 -85 -47 -27 -15 -57 -33 -64 -41 -13 -12 -15 -229 -15 -1590 -1 -1389 1 -1577 14 -1587 8 -7 26 -18 40 -26 14 -8 63 -36 109 -63 46 -26 88 -48 92 -48 5 0 9 -4 9 -10 0 -5 4 -10 9 -10 8 0 308 -168 371 -208 14 -9 27 -15 29 -13 2 1 7 -1 10 -6 3 -4 26 -19 51 -32 25 -13 52 -30 60 -37 8 -7 17 -12 20 -11 3 0 16 -6 30 -15 30 -18 218 -126 275 -158 22 -12 45 -26 50 -30 6 -4 37 -22 70 -40 78 -43 109 -61 170 -97 28 -16 57 -32 65 -36 8 -4 29 -16 45 -27 17 -11 44 -26 60 -35 17 -8 44 -23 60 -34 17 -10 48 -28 70 -41 22 -12 69 -39 105 -60 36 -21 81 -47 100 -58 19 -11 85 -48 145 -82 61 -35 124 -71 140 -80 17 -10 54 -31 83 -49 29 -17 57 -31 62 -31 6 0 10 -4 10 -8 0 -4 16 -14 35 -21 19 -7 35 -17 35 -22 0 -5 4 -9 9 -9 5 0 79 -40 165 -90 86 -50 159 -90 161 -90 3 0 224 125 265 150 8 6 83 48 165 95 83 47 157 90 165 95 8 6 22 13 30 17 8 4 49 27 90 51 41 25 95 56 120 70 25 14 59 33 75 42 213 122 271 156 273 162 2 4 12 8 22 8 10 0 20 4 22 8 2 7 118 75 205 120 20 11 26 5 95 -115 40 -70 75 -132 77 -138 2 -5 7 -12 10 -15 3 -3 17 -25 30 -50 14 -25 58 -100 98 -168 40 -68 73 -125 73 -126 0 -4 328 -569 337 -581 4 -6 23 -39 42 -75 18 -36 39 -72 45 -80 6 -8 22 -35 35 -60 13 -25 29 -52 36 -60 7 -8 15 -22 18 -30 4 -8 22 -42 42 -75 19 -33 40 -70 47 -82 15 -31 21 -29 45 15 54 99 78 137 85 140 4 2 8 10 8 18 0 8 5 20 10 27 6 7 38 59 72 117 33 58 75 130 93 160 18 30 44 75 57 100 14 25 35 61 46 80 12 19 26 44 32 55 5 11 23 43 40 70 17 28 36 61 43 75 6 14 14 27 17 30 7 7 29 42 37 60 4 8 26 48 50 88 24 41 43 78 43 83 0 5 5 9 10 9 6 0 10 4 10 8 0 5 38 75 85 156 47 81 85 150 85 152 0 3 5 10 10 17 16 18 109 177 104 177 -6 0 50 84 59 88 4 2 5 7 2 12 -3 4 2 13 10 20 8 7 15 16 15 20 0 4 64 117 142 251 77 134 151 261 162 282 12 20 58 101 104 178 45 78 82 145 82 150 0 5 4 9 9 9 5 0 11 8 14 18 4 9 17 35 29 57 42 72 123 209 135 230 7 11 16 27 20 35 4 8 35 63 70 122 35 59 63 111 63 117 0 5 3 11 8 13 4 2 31 45 60 96 l52 92 -2 408 -3 407 -835 0 -835 0 -1 130 c-1 72 -3 135 -4 140 -1 6 -2 15 0 20 2 15 3 288 0 300 -1 6 -1 15 0 20 5 21 0 166 -5 176 -4 5 -3 9 2 9 7 0 9 253 3 270 -1 3 -1 10 0 15 5 23 5 115 0 115 -3 0 -5 18 -5 40 0 22 2 40 5 40 3 0 5 12 4 28 -1 15 -3 33 -3 40 -1 6 -6 12 -11 12 -6 0 -80 41 -165 90 -85 50 -159 90 -164 90 -5 0 -11 3 -13 8 -1 4 -23 18 -48 31 -25 13 -56 33 -69 43 -13 10 -27 18 -32 18 -4 0 -65 34 -134 75 -70 41 -130 75 -134 75 -3 0 -22 11 -42 24 -20 13 -60 38 -90 54 -30 16 -70 39 -89 51 -19 11 -48 28 -65 36 -16 9 -43 24 -60 35 -16 10 -41 25 -55 33 -133 74 -195 111 -198 119 -2 4 -10 8 -19 8 -8 0 -27 8 -41 18 -48 31 -67 42 -92 54 -14 7 -27 15 -30 18 -7 7 -79 48 -120 68 -19 9 -37 19 -40 22 -5 5 -24 16 -105 62 -27 16 -57 33 -65 38 -44 28 -260 150 -266 150 -3 0 -18 9 -32 19 -30 21 -124 75 -162 94 -14 6 -27 14 -30 18 -3 3 -34 22 -70 41 -36 20 -116 65 -178 101 -62 36 -120 68 -130 71 -10 4 -34 -5 -55 -19z m4095 -3430 c-14 -27 -33 -58 -41 -67 -8 -10 -10 -18 -5 -18 5 0 4 -4 -2 -8 -9 -6 -114 -182 -123 -207 -2 -5 -9 -17 -16 -25 -7 -8 -26 -40 -42 -70 -17 -30 -51 -90 -76 -133 -26 -43 -47 -81 -47 -84 0 -3 -12 -24 -27 -47 -16 -22 -35 -54 -43 -71 -8 -16 -17 -32 -20 -35 -6 -6 -135 -229 -158 -275 -9 -16 -18 -32 -22 -35 -4 -3 -9 -12 -13 -20 -3 -8 -22 -42 -42 -75 -19 -33 -46 -80 -60 -105 -14 -25 -30 -52 -35 -60 -8 -13 -28 -47 -90 -155 -112 -195 -174 -304 -185 -320 -7 -11 -12 -23 -11 -26 1 -4 -6 -15 -15 -25 -14 -16 -30 -44 -93 -159 -6 -11 -13 -22 -16 -25 -10 -10 -41 -65 -47 -82 -3 -10 -9 -18 -14 -18 -5 0 -9 -5 -9 -10 0 -9 -137 -252 -180 -320 -5 -8 -22 -37 -38 -65 -16 -27 -46 -79 -67 -115 -21 -36 -44 -77 -52 -92 -8 -16 -18 -28 -21 -28 -7 0 -52 65 -52 75 0 2 -16 29 -35 59 -19 30 -35 57 -35 60 0 5 -89 160 -118 206 -9 14 -15 28 -14 33 1 4 -2 7 -8 7 -5 0 -10 4 -10 9 0 8 -100 185 -130 231 -6 8 -17 30 -25 48 -9 17 -20 32 -25 32 -6 0 -10 7 -10 15 0 8 -15 38 -33 67 -19 29 -37 60 -40 68 -4 8 -11 22 -17 30 -28 42 -100 172 -100 180 0 6 -4 10 -10 10 -5 0 -10 4 -10 9 0 5 -20 44 -45 85 -25 42 -45 81 -45 86 0 6 -4 10 -10 10 -5 0 -10 4 -10 9 0 5 -20 44 -45 85 -25 42 -45 81 -45 86 0 6 -4 10 -10 10 -5 0 -10 4 -10 9 0 5 -23 49 -51 98 -28 48 -59 102 -69 118 -9 17 -50 86 -90 155 -40 69 -87 150 -103 180 -17 30 -33 57 -36 60 -4 3 -12 16 -19 30 -7 14 -22 41 -34 60 -36 59 -77 134 -90 163 -7 15 -16 27 -20 27 -4 0 -8 4 -8 9 0 5 -35 69 -78 142 -43 74 -95 163 -115 199 l-36 66 1639 0 1639 0 -27 -51z" transform="translate(0.000000,800.000000) scale(0.100000,-0.100000)"/></g></svg>