<?xml version="1.0" standalone="no"?>
<!DOCTYPE svg PUBLIC "-//W3C//DTD SVG 20010904//EN"
 "http://www.w3.org/TR/2001/REC-SVG-20010904/DTD/svg10.dtd">
<svg version="1.0" xmlns="http://www.w3.org/2000/svg"
 width="512.000000pt" height="512.000000pt" viewBox="0 0 512.000000 512.000000"
 preserveAspectRatio="xMidYMid meet">
<metadata>
Created by potrace 1.14, written by Peter Selinger 2001-2017
</metadata>
<g transform="translate(0.000000,512.000000) scale(0.100000,-0.100000)"
fill="#000000" stroke="none">
<path d="M1985 5048 c-22 -11 -42 -24 -45 -27 -3 -4 -23 -16 -45 -27 -72 -36
-260 -147 -267 -158 -4 -6 -8 -7 -8 -2 0 5 -9 1 -20 -9 -11 -10 -20 -14 -20
-9 0 5 -4 5 -8 -1 -4 -5 -18 -16 -32 -24 -137 -78 -408 -234 -420 -241 -41
-25 -172 -100 -175 -100 -2 0 -49 -27 -104 -60 -56 -33 -104 -60 -106 -60 -3
0 -24 -11 -46 -26 -22 -14 -55 -33 -72 -43 -18 -10 -52 -30 -77 -45 -25 -15
-53 -29 -63 -33 -9 -3 -17 -9 -17 -14 0 -5 -5 -9 -11 -9 -6 0 -41 -18 -77 -39
-37 -21 -71 -39 -75 -40 -25 -2 -38 -34 -37 -93 0 -35 -1 -71 -1 -80 0 -10 0
-191 0 -403 0 -212 -1 -391 -1 -397 0 -7 2 -28 5 -46 2 -18 0 -35 -4 -38 -5
-3 -7 -9 -4 -14 4 -6 6 -628 3 -860 0 -8 2 -30 5 -48 2 -18 0 -35 -4 -38 -14
-8 8 -41 38 -57 53 -27 128 -70 155 -89 16 -11 28 -16 28 -12 0 4 8 0 18 -9
21 -19 95 -62 135 -78 15 -6 27 -15 27 -20 0 -5 5 -9 11 -9 6 0 64 -32 129
-70 65 -39 121 -70 124 -70 2 0 41 -22 85 -50 44 -27 83 -50 86 -50 2 0 34
-18 70 -40 36 -22 67 -40 69 -40 3 0 37 -19 78 -43 180 -106 223 -132 228
-132 3 0 16 -8 30 -17 104 -67 455 -258 466 -254 8 3 17 5 19 5 3 0 13 7 21
16 9 8 22 15 30 15 8 0 14 5 14 10 0 6 6 10 14 10 7 0 19 7 26 15 7 9 15 13
17 11 3 -3 29 11 58 30 30 19 56 34 58 34 4 0 105 58 157 90 8 5 67 39 130 75
63 36 138 79 165 95 28 17 62 35 78 41 15 6 27 15 27 20 0 5 6 9 13 9 7 0 29
11 49 25 34 23 36 23 52 6 9 -10 16 -23 16 -29 0 -6 6 -17 13 -24 7 -7 28 -40
46 -73 18 -33 55 -97 82 -141 27 -45 49 -87 49 -93 0 -6 5 -11 10 -11 6 0 10
-5 10 -10 0 -6 17 -38 38 -73 20 -34 48 -83 62 -109 14 -27 28 -48 32 -48 5 0
8 -5 8 -11 0 -6 23 -49 51 -97 29 -48 61 -103 72 -122 10 -19 41 -72 68 -118
27 -45 49 -87 49 -93 0 -29 47 26 77 91 7 16 55 98 82 140 8 14 16 27 16 30 0
3 31 56 68 118 37 63 67 118 67 123 0 5 4 9 9 9 5 0 11 8 14 17 6 18 22 46 90
161 20 35 37 65 37 68 0 3 8 17 19 32 10 15 45 74 79 132 33 58 101 176 151
262 107 185 127 221 153 271 11 20 25 37 31 37 6 0 8 3 4 6 -3 3 16 43 43 87
90 154 136 233 201 347 17 30 59 102 92 160 l61 104 1 251 c1 137 0 255 -2
261 -3 7 -167 10 -529 10 -289 -1 -530 1 -535 5 -5 3 -10 196 -11 433 l-3 427
-50 27 c-27 15 -52 29 -55 32 -3 3 -20 13 -38 23 -81 43 -97 53 -110 65 -7 6
-18 12 -24 12 -5 0 -22 8 -36 19 -15 10 -47 29 -72 43 -76 42 -122 69 -190
108 -36 21 -82 47 -102 59 -63 35 -101 57 -156 90 -29 17 -54 31 -56 31 -2 0
-34 18 -70 40 -36 22 -70 40 -76 40 -5 0 -10 5 -10 10 0 6 -5 10 -10 10 -6 0
-40 18 -76 40 -36 22 -68 40 -69 40 -2 0 -70 38 -150 85 -81 47 -149 85 -151
85 -4 0 -77 44 -130 78 -10 6 -26 15 -34 19 -8 4 -32 17 -52 30 -21 13 -39 23
-40 23 -2 -1 -21 -10 -43 -22z m2645 -2162 c0 -3 -283 -494 -378 -656 -31 -52
-55 -98 -54 -102 1 -5 -2 -8 -7 -8 -5 0 -11 -8 -14 -17 -4 -10 -18 -36 -32
-58 -13 -22 -28 -47 -32 -55 -6 -13 -57 -101 -90 -155 -7 -11 -18 -31 -25 -45
-7 -14 -26 -47 -43 -75 -17 -27 -49 -81 -70 -120 -22 -38 -45 -79 -52 -90 -7
-11 -15 -27 -19 -35 -4 -8 -10 -17 -13 -20 -3 -3 -13 -19 -22 -35 -44 -85 -65
-120 -71 -123 -5 -2 -8 -10 -8 -18 0 -8 -4 -14 -8 -14 -4 0 -13 -12 -19 -27
-14 -32 -71 -134 -82 -146 -8 -8 -81 105 -81 124 0 5 -4 9 -8 9 -5 0 -14 16
-22 35 -8 19 -17 35 -22 35 -4 0 -8 6 -9 13 0 6 -13 32 -29 57 -16 25 -41 68
-56 95 -14 28 -32 53 -38 57 -6 4 -7 8 -3 8 4 0 -6 20 -23 44 -16 25 -30 47
-30 50 0 3 -20 40 -45 82 -25 41 -45 80 -45 85 0 5 -4 9 -10 9 -5 0 -10 4 -10
9 0 6 -52 99 -115 207 -63 109 -115 201 -115 206 0 4 -4 8 -8 8 -4 0 -13 12
-20 28 -6 15 -25 50 -41 77 -32 53 -46 79 -77 135 -10 19 -22 37 -26 38 -5 2
-8 7 -8 12 0 5 -27 54 -60 110 -33 56 -60 106 -60 111 0 5 -4 9 -10 9 -5 0
-10 4 -10 9 0 6 -16 37 -35 70 -19 32 -35 62 -35 65 0 3 470 6 1045 6 575 0
1045 -2 1045 -4z"/>
</g>
</svg>
